<svg width="186" height="186" fill="none" xmlns="http://www.w3.org/2000/svg"><g clip-path="url(#a)"><path d="M149.4 87.3H34.2l22-60.5h71.2l22 60.5z" fill="#225784"/><path d="M61.6 29.7v-3.2a2.7 2.7 0 0 1 2.7-2.7h14.3a2.7 2.7 0 0 1 2.7 2.7v3.2h44.4v55.7H57.2V29.7h4.4z" fill="#CC9633"/><path d="M98 42.8v-3.2a2.7 2.7 0 0 0-2.8-2.7H81a2.7 2.7 0 0 0-2.7 2.7v3.3h-26v55.6H131V42.9H98z" fill="#FFC863"/><path d="M119.2 56.2V53a2.7 2.7 0 0 0-2.7-2.7h-14.3a2.7 2.7 0 0 0-2.7 2.7v3.2H48.3V112h87.2V56.2h-16.3z" fill="#CC9633"/><path d="M137.3 72.6v-3.3a2.7 2.7 0 0 0-2.7-2.7h-14.3a2.7 2.7 0 0 0-2.7 2.7v3.3H41.2v55.6h101.3V72.6h-5.2z" fill="#FFC863"/><path d="M149.4 87.2H34.2v61h115.2v-61z" fill="#40A0FF"/><path d="M112.1 96.8H72.6v14.3h39.5V96.8z" fill="#fff"/><path d="M84.6 109.4c-.9 0-1.7-.1-2.6-.4-1.7-.5-2.8-1.6-3.2-2.9-.1-.7-.2-1.4 0-2a8.5 8.5 0 0 1 3.4-5.5l.6.8a7.5 7.5 0 0 0-3 4.8c-.2.5-.2 1.1 0 1.7.3 1.4 1.9 2 2.5 2.2a8.8 8.8 0 0 0 6.8-.8c-.3-.4-.5-1-.6-1.5-.3-1.4.3-3 1.6-4.3a6 6 0 0 1 3.8-2c.9 0 1.6.4 1.9 1 .1.3.2.7 0 1.1a6.4 6.4 0 0 1-1.9 3.2c-1 1-2 2-3.2 2.7l1.2.5c1 .2 2.2 0 3.7-.5 1-.3 1.8-.7 2.7-1.2a3.8 3.8 0 0 1 3.4-5c.3 0 .6 0 .9.2.6.5.6 1.5.2 2.2-.6 1-1.5 1.7-2.2 2.2l-1.1.8a2.8 2.8 0 0 0 1.7 1.3c1.3.3 2.7-.4 4.1-1.2l.5.8c-1.5.9-3.1 1.7-4.8 1.4a3.7 3.7 0 0 1-2.4-1.8c-.8.5-1.7.9-2.7 1.2-1.6.6-3 .8-4.2.5-.7-.2-1.3-.5-1.9-.9l-1.2.6c-1.3.5-2.6.8-4 .8zm9.5-8.9h-.2a5 5 0 0 0-3 1.7c-.6.5-1.8 2-1.5 3.5.1.4.3.8.6 1.1a17 17 0 0 0 3.3-2.7c.7-.7 1.4-1.6 1.6-2.7v-.5c-.1-.3-.5-.4-.8-.4zm7.7 1.8c-1.4 0-2.6 1.2-2.7 2.6v.9l1-.7c.6-.4 1.4-1 1.8-1.9.3-.3.3-.8.2-.9h-.3zm12 15H71.3a6.8 6.8 0 1 0 0 13.7h42.5a6.8 6.8 0 1 0 0-13.7z" fill="#225784"/></g><defs><clipPath id="a"><path fill="#fff" d="M0 0h186v186H0z"/></clipPath></defs></svg>