<svg width="186" height="186" fill="none" xmlns="http://www.w3.org/2000/svg"><g clip-path="url(#a)"><path d="m22.46 100.43-11.53 16.84h20.89v-14.61l-9.36-2.23z" fill="#40A0FF"/><path d="M127.78 71.6v12.8a20.88 20.88 0 0 0 20.88 20.89h19.2V58.55c0-5.65-2.27 2.4-5.9-1.2a20.03 20.03 0 0 0-14.14-5.8c-5.03 0-9.64 1.87-13.16 4.94a20 20 0 0 0-6.88 15.11z" fill="#31D3B4"/><path d="M141.6 65.53a9.33 9.33 0 1 0 18.67.01 9.33 9.33 0 0 0-18.67 0z" fill="#96E9D9"/><path d="M127.78 71.6v2.08a9.33 9.33 0 1 0 6.87-17.19 20.01 20.01 0 0 0-6.87 15.11z" fill="#96E9D9"/><path d="M138.59 66.23a2.41 2.41 0 1 1-4.83 0 2.41 2.41 0 0 1 4.83 0zM149.54 66.23a2.41 2.41 0 1 1-4.83 0 2.41 2.41 0 0 1 4.83 0z" fill="#225784"/><path d="M167.86 100.22c-9.97 0-14.8-6.2-17.13-12.34a8.84 8.84 0 1 1 17.13-3.1v15.44zM133.63 81.3c-1.36 0-2.4-.69-2.89-1.27l.6-.52c.09.1 1.99 2.24 5.02-.06l.25-.19.24.2c.1.08 2.33 1.87 4.9-.01l.24-.18.24.19c.1.09 2.72 2.1 5.25 0l.5.62c-2.54 2.1-5.19.7-6 .18a4.77 4.77 0 0 1-5.38 0 5.13 5.13 0 0 1-2.97 1.05zM136.54 86.92c-1.81 0-2.9-1.26-2.92-1.28l.6-.51-.3.25.3-.25c.09.09 1.98 2.23 5.01-.06l.26-.2.24.2c.09.08 2.32 1.88 4.9-.01l.46.64a4.77 4.77 0 0 1-5.61.17 5.06 5.06 0 0 1-2.94 1.05z" fill="#96E9D9"/><path d="m141.62 66.5 4.42 5.12-8.88.05 4.46-5.16z" fill="#FFC863"/><path d="M148.9 51.59h23.01l-6.3 10.73-16.72-10.73zM167.86 105.29l4.05 14.77h-14.8V104.9l10.75.39z" fill="#31D3B4"/><path d="M103 123.31H78.38l6.4-20.85h11.46l6.76 20.85z" fill="#FF7374"/><path d="m87.2 112.35-1.86 10.93.78.14L88 112.48l-.78-.13zM95.4 112.34l-.79.15 2.06 10.94.78-.15-2.06-10.94z" fill="#225784"/><path d="M50.58 62.94V64.37l.01.8.05 4.56.15 16.18.06 5.92a14 14 0 0 1-13.27 14.1l-9.15.48c-1.43.07-4.58-1.38-5.97-1.78l.11-12.02.89-30.53.13-4.4v-.08c.31-5.97 4.7-6.41 10.43-7.79.57-.13 1.17-.24 1.77-.3l.21-.02a13.51 13.51 0 0 1 14.57 13.44z" fill="#40A0FF"/><path d="m36 49.49-18.24.93 6.82 8.49L36 49.49z" fill="#40A0FF"/><path d="m47 61.28 9.24-.31-8.89 7.21-.35-6.9z" fill="#FFC863"/><path d="m23.22 78.52-.45 21.5s15.5-4.96 15.45-20.15l-15-1.35z" fill="#40A0FF"/><path d="m22.46 100.43.13-7.86.59.02-.11 7.02c1.07-.4 4.2-1.7 7.27-4.2 3.48-2.82 7.62-7.81 7.59-15.53h.58c.03 7.96-4.23 13.09-7.81 16a27.17 27.17 0 0 1-7.85 4.43l-.39.12zM43.75 60.85a1.4 1.4 0 1 1-2.78.14 1.4 1.4 0 0 1 2.78-.14z" fill="#225784"/><path d="M95.4 109.88c-6.45 0-12.96-.17-19.5-.5-25-1.28-50.54-5.01-75.9-11.1l.18-.78c25.32 6.08 50.8 9.8 75.75 11.08 19.96 1.02 39.62.48 58.44-1.6 25.62-2.84 44.5-8.12 50.9-10.5l.29.74c-6.44 2.4-25.4 7.7-51.1 10.55a355.46 355.46 0 0 1-39.06 2.1zM172.55 138.44H12.82v.8h159.73v-.8z" fill="#225784"/><path d="M119.4 81.82a28.21 28.21 0 1 1-56.43 0 28.2 28.2 0 0 1 44.05-23.36 28.2 28.2 0 0 1 12.38 23.36z" fill="#FF7374"/><path d="M82.6 91.58a5.91 5.91 0 0 1-4.23-1.85l.6-.51c.13.14 3.08 3.5 7.79-.06l.25-.2.24.2c.15.13 3.6 2.92 7.58 0l.25-.19.23.2c.17.13 4.2 3.25 8.13 0l.5.61c-3.83 3.19-7.85.88-8.87.19a6.97 6.97 0 0 1-8.07 0 7.5 7.5 0 0 1-4.4 1.6zM86.91 100a5.92 5.92 0 0 1-4.23-1.85l.6-.52c.13.15 3.08 3.5 7.79-.06l.25-.2.24.21c.15.12 3.6 2.91 7.58-.01l.47.64a6.98 6.98 0 0 1-8.3.17 7.48 7.48 0 0 1-4.4 1.61z" fill="#FF4B4B"/><path d="M83.33 69.97a1.92 1.92 0 1 1-3.83 0 1.92 1.92 0 0 1 3.83 0zM102.75 69.97a1.92 1.92 0 1 1-3.83 0 1.92 1.92 0 0 1 3.83 0z" fill="#225784"/><path d="m99.38 54.8-20.7-8.15v11.1l20.7-2.94z" fill="#FF7374"/><path d="m163.04 107.81-.78.15 2.2 12.1.78-.13-2.2-12.12z" fill="#225784"/><path d="M27.39 105.99a2.7 2.7 0 1 1 1.14-5.28 2.7 2.7 0 0 1-1.14 5.28zM36.6 107.96a2.7 2.7 0 1 1 1.14-5.27 2.7 2.7 0 0 1-1.14 5.27zM156.4 107.3a2.7 2.7 0 1 0-.88-5.33 2.7 2.7 0 0 0 .89 5.32zM147.11 108.84a2.7 2.7 0 1 0-.89-5.32 2.7 2.7 0 0 0 .9 5.32zM86.6 112.89a2.7 2.7 0 1 1 0-5.39 2.7 2.7 0 0 1 0 5.39zM96.02 112.89a2.7 2.7 0 1 1 0-5.39 2.7 2.7 0 0 1 0 5.39zM90.46 69.97l-6.05 7.01 12.17.07-6.12-7.08z" fill="#FFC863"/><path d="m24.57 109.81-2.88 7.3.74.3 2.89-7.3-.75-.3zM29.16 90.66h-.8v6.19h.8v-6.19z" fill="#225784"/></g><defs><clipPath id="a"><path fill="#fff" d="M0 0h186v186H0z"/></clipPath></defs></svg>