<svg width="186" height="186" fill="none" xmlns="http://www.w3.org/2000/svg"><g clip-path="url(#a)"><path d="M59.6 97.6H43.7v7.4h16v-7.4zm29.5 0H73.3v7.4H89v-7.4zm29.6 0h-15.9v7.4h15.9v-7.4z" fill="#40A0FF"/><path d="M157 104.3H61.8v42.6H157v-42.6z" fill="#88C4FF"/><path d="M69 104.3H32.5v42.6H69v-42.6z" fill="#40A0FF"/><path d="M118.7 97.6h-15.9v7.4h15.9v-7.4zm29.5 0h-15.9v7.4h16v-7.4z" fill="#88C4FF"/><path d="M107.2 55H91.3v7.4h15.9V55z" fill="#225784"/><path d="M136.7 55h-15.9v7.4h16V55z" fill="#40A0FF"/><path d="M157.2 61.7h-47.8v42.6h47.8V61.7z" fill="#FFC863"/><path d="M109.4 61.7H80.1v42.6h29.3V61.7z" fill="#CC9633"/><path d="M89.1 97.6H73.3v7.4H89v-7.4z" fill="#88C4FF"/><path d="M136.7 55h-15.9v7.4h16V55z" fill="#FFC863"/><path d="M59.4 33.7h-16V41h16v-7.4z" fill="#00B799"/><path d="M88.9 33.7H73V41h16v-7.4z" fill="#40A0FF"/><path d="M109.4 40.3H61.6V83h47.8V40.3z" fill="#31D3B4"/><path d="M61.8 40.3H32.3V83h29.5V40.3z" fill="#00B799"/><path d="M88.9 33.7H73V41h16v-7.4z" fill="#31D3B4"/></g><defs><clipPath id="a"><path fill="#fff" d="M0 0h186v186H0z"/></clipPath></defs></svg>