<svg width="186" height="186" fill="none" xmlns="http://www.w3.org/2000/svg"><g clip-path="url(#a)"><path d="M67.1 51H43v104.3h24.2V51z" fill="#31D3B4"/><path d="M142 51H67.2v104.2h75V51z" fill="#40A0FF"/><path d="M67.1 129.8v3.6h.2-.2v21.8h22l53-82.3V51H118l-51 78.8z" fill="#88C4FF"/><path d="M103.7 128a26.2 26.2 0 1 0 0-52.4 26.2 26.2 0 0 0 0 52.3z" fill="#FFC863"/><path d="M103.7 124.3a22.6 22.6 0 1 1 0-45.1 22.6 22.6 0 0 1 0 45.1zm0-44.2a21.6 21.6 0 1 0 0 43.3 21.6 21.6 0 0 0 0-43.3zM62 133.7H48v1h14v-1zm0-4H48v.9h14v-1zm0-4.1H48v.9h14v-1zm0-4.1H48v.9h14v-1z" fill="#fff"/><path d="M103.9 115a13.2 13.2 0 0 1 0-26.5c3 0 5.9 1 8.2 2.9l-.6.7a12.3 12.3 0 1 0-7.7 22 12.2 12.2 0 0 0 8.8-3.6l.6.6a13.2 13.2 0 0 1-9.3 3.9z" fill="#225784"/><path d="M86.8 97.5v1h20.8v-1H86.8zm0 7.1v1H105v-1H86.8z" fill="#225784"/><path d="M62.5 138.6H47.8v9.4h14.7v-9.4z" fill="#fff"/><path d="M50.5 139.8h-1v7h1v-7zm2.5 0h-.9v7h1v-7zm2.6 0h-1v7h1v-7zm2.5 0h-.9v7h1v-7zm2.6 0h-1v7h1v-7z" fill="#225784"/><path d="M30.5 33.4L42.9 51h24.2L54.7 33.4H30.5z" fill="#00B799"/><path d="M130.3 33.4L118 51h24l12.4-17.6h-24.2z" fill="#225784"/></g><defs><clipPath id="a"><path fill="#fff" d="M0 0h186v186H0z"/></clipPath></defs></svg>