<svg fill="none" height="186" width="186" xmlns="http://www.w3.org/2000/svg" xmlns:xlink="http://www.w3.org/1999/xlink"><clipPath id="a"><path d="m0 0h186v186h-186z"/></clipPath><g clip-path="url(#a)"><path d="m108.7 41.5-11.7-13.6a1.3 1.3 0 0 0 -2 0l-10.5 13.4-.7-.6 10.5-13.2a2.3 2.3 0 0 1 3.4-.1l11.7 13.6-.7.6zm-48-1h-22v22h22z" fill="#225784"/><path d="m60.7 62.6h-22v87.6h22z" fill="#31d3b4"/><path d="m148.4 40.5h-87.7v22h87.7z" fill="#ffc863"/><path d="m148.4 62.6h-87.7v87.6h87.7z" fill="#c8e4ff"/><path d="m96 32.1a3 3 0 1 0 0-5.8 3 3 0 0 0 0 5.8z" fill="#88c4ff"/><path d="m44.8 62.3h-1v27h1zm11.3 79.2h-1v8.5h1zm-6.6-31.4h-1v40.1h1v-40zm6.6-17.1h-1v26.9h1v-27z" fill="#225784"/><g fill="#fff"><path d="m86.5 89h-19.2v-19h19.2zm-18.2-1h17.3v-17.1h-17.3z"/><path d="m86.5 107.3h-19.2v-19.3h19.2v19.2zm-18.2-1h17.3v-17.3h-17.3z"/><path d="m86.5 125.5h-19.2v-19.2h19.2zm-18.2-1h17.3v-17.2h-17.3v17.3z"/><path d="m86.5 143.7h-19.2v-19.1h19.2zm-18.2-1h17.3v-17.2h-17.3v17.3zm36.4-53.7h-19.1v-19h19.1zm-18.2-1h17.3v-17.1h-17.3z"/><path d="m104.7 107.3h-19.1v-19.3h19.1v19.2zm-18.2-1h17.3v-17.3h-17.3z"/><path d="m104.7 125.5h-19.1v-19.2h19.1zm-18.2-1h17.3v-17.2h-17.3v17.3z"/><path d="m104.7 143.7h-19.1v-19.1h19.1zm-18.2-1h17.3v-17.2h-17.3v17.3zm36.5-53.7h-19.2v-19h19.1v19zm-18.3-1h17.3v-17.1h-17.3z"/><path d="m123 107.3h-19.2v-19.3h19.1v19.2zm-18.3-1h17.3v-17.3h-17.3z"/><path d="m123 125.5h-19.2v-19.2h19.1v19.2zm-18.3-1h17.3v-17.2h-17.3v17.3z"/><path d="m123 143.7h-19.2v-19.1h19.1v19.1zm-18.3-1h17.3v-17.2h-17.3v17.3zm36.5-53.7h-19.2v-19h19.2zm-18.2-1h17.3v-17.1h-17.4v17.1z"/><path d="m141.2 107.3h-19.2v-19.3h19.2v19.2zm-18.2-1h17.3v-17.3h-17.4v17.3z"/><path d="m141.2 125.5h-19.2v-19.2h19.2zm-18.2-1h17.3v-17.2h-17.4v17.3z"/><path d="m141.2 143.7h-19.2v-19.1h19.2zm-18.2-1h17.3v-17.2h-17.4v17.3z"/></g><path d="m113.8 108.4c-.6 0-1.3 0-1.9-.2-4.6-.8-8-3.3-9.3-7-1.4-4-.5-8.9 2.5-12.4a14 14 0 0 1 13.6-4.5.8.8 0 0 1 -.3 1.7c-4.8-.9-9.2.5-12 3.9a11 11 0 0 0 -2.2 10.6c1.2 3.2 4 5.4 8 6 4.8.9 10.8-2.6 12-9.1.2-1.7.6-7.2-6.3-8.4a.8.8 0 1 1 .3-1.7c5.6 1 8.5 5 7.6 10.4-1 5.5-5.9 10.7-12 10.7z" fill="#40a0ff"/></g></svg>