<svg width="186" height="186" fill="none" xmlns="http://www.w3.org/2000/svg"><g clip-path="url(#a)"><path d="M90.5 85H70.7v48h19.8V85z" fill="#31D3B4"/><path d="M90.5 85v14.3a52.8 52.8 0 0 1-15.7-14.4h15.7z" fill="#00B799"/><path d="M43 96H23v37h20V96zm23.8-23.2H46.9V133h19.9V72.8z" fill="#31D3B4"/><path d="M93.4 132.5H21v1h72.3v-1zM111.7 89h-6.9v11h6.9V89z" fill="#225784"/><path d="M136 26.8v32.8c0 16.8-12 32.3-31.2 40.4-19.2-8.1-31.2-23.6-31.2-40.4V26.8H136z" fill="#225784"/><path d="M142.9 26.8v32.8c0 16.8-12 32.3-31.2 40.4-19.3-8.1-31.2-23.6-31.2-40.4V26.8h62.4z" fill="#40A0FF"/><path d="M131 40.8h-10l-12.4 22.8-6.9-12.6h-10l11.9 21.7h10l17.3-32z" fill="#225784"/><path d="M134 40.8h-10l-12.4 22.8-6.8-12.6h-10l11.9 21.7h9.9l17.4-32z" fill="#FFC863"/><path d="M149.4 116.2h-47.1v1h47.1v-1zm0 8.1h-47.1v1h47.1v-1zm0 8.2h-47.1v1h47.1v-1zm0 8.1h-47.1v1h47.1v-1zm0 8.1h-47.1v1h47.1v-1z" fill="#C8E4FF"/><path d="M125.1 146.8a1.1 1.1 0 0 1-1-.5l-11.5-19.8-10 15.5v-4.2l9.2-14a1 1 0 0 1 1-.5 1.1 1.1 0 0 1 .9.5l11.5 19.7 7-12a1.1 1.1 0 0 1 1-.5 1.1 1.1 0 0 1 1 .5l4.6 6.7 9-16.7 1.9 1-9.8 18.4a1.1 1.1 0 0 1-1.5.5l-.4-.4-4.7-6.8-7.2 12a1.1 1.1 0 0 1-1 .6z" fill="#FFC863"/><path d="M149.4 154.2h-47.6V116h1v37h46.6v1z" fill="#225784"/></g><defs><clipPath id="a"><path fill="#fff" d="M0 0h186v186H0z"/></clipPath></defs></svg>