<svg xmlns="http://www.w3.org/2000/svg" fill="none" viewBox="0 0 186 186"><g clip-path="url(#a)"><path fill="#FFC863" d="M139 76H32v73h107V76Z"/><path fill="#E5F5FF" d="M130 39a14 14 0 0 1 14-14H64a14 14 0 0 0-14 14v101h80V39Z"/><path fill="#C8E4FF" d="M120 79H62v1h58v-1Zm-55-6-2-2 8-7 6 4 15-24 10 18 9-11 9 7-2 2-6-6-11 12-9-18-14 23-7-5-6 7Z"/><path fill="#40A0FF" d="m65 66-2-1 7-9 8 7 14-12 10 7 9 1 8-11 2 1-9 13-11-2-9-6-14 12-8-7-5 7Z"/><path fill="#225784" d="M74 45H62v1h12v-1Zm-5 5h-7v1h7v-1Z"/><path fill="#40A0FF" d="M143 25H64a14 14 0 0 1 13 14h80a14 14 0 0 0-14-14Z"/><path fill="#31D3B4" d="m64 77-1-2 9-4 7 3 13-7 10 5 8-5 9-3v2l-8 3-9 6-10-6-13 8-7-4-8 4Zm75 72H32l30-64h107l-30 64Z"/><path fill="#fff" d="M111 125H77l8-18h34l-8 18Z"/><path fill="#225784" d="M93 120h-2l-1-2-6 2v-1l5-2v-1a8 8 0 0 1 4-5h3v2l-2 1v1l-4 3a2 2 0 0 0 1 1l5-1 4-1v-2l3-3h2v2l-3 2-1 1v1c1 1 4 1 8-2l1 1c-4 3-8 3-10 1l-4 1-3 1Zm1-9v1l-2 1a7 7 0 0 0-2 3l3-2h1l1-1v-2h-1Zm10 2-3 3 1-1 2-2h1-1Z"/></g><defs><clipPath id="a"><path fill="#fff" d="M0 0h186v186H0z"/></clipPath></defs></svg>
