<svg width="186" height="186" fill="none" xmlns="http://www.w3.org/2000/svg"><g clip-path="url(#a)"><path d="M152.6 38.2H32v16h120.5v-16z" fill="#40A0FF"/><path d="M152.6 54.2H32v91h120.5v-91z" fill="#C8E4FF"/><path d="M41.3 50.5a4.2 4.2 0 1 1-.1-8.5 4.2 4.2 0 0 1 .1 8.5zm0-7.5a3.3 3.3 0 1 0-.1 6.6 3.3 3.3 0 0 0 .1-6.6z" fill="#225784"/><path d="M52.7 50a3.7 3.7 0 0 0 0-7.6c-2 0-3.7 1.8-3.7 3.9 0 2 1.7 3.7 3.7 3.7z" fill="#FFC863"/><path d="M63.5 50a3.7 3.7 0 0 0 0-7.6c-2 0-3.7 1.8-3.7 3.9 0 2 1.7 3.7 3.7 3.7z" fill="#31D3B4"/><path d="M142.5 136.3H42.2V63.1h100.3v73.2zm-99.4-1h98.4V64H43.1v71.4z" fill="#fff"/><path d="M73.5 113.6L51.7 99.9l21.8-14.2v5.7l-13.8 8.5 13.8 8.4v5.3zm37.7-27.9l21.7 13.7-21.7 14.2v-5.7l13.7-8.5-13.7-8.4v-5.3zM84 116.2l23.2-33H101l-23.6 33H84z" fill="#225784"/></g><defs><clipPath id="a"><path fill="#fff" d="M0 0h186v186H0z"/></clipPath></defs></svg>