<svg width="186" height="186" fill="none" xmlns="http://www.w3.org/2000/svg"><g clip-path="url(#a)"><path d="M123 119.8L73.3 70.1l12.3-12.3a12 12 0 0 1 17 0L143.8 99 123 119.8z" fill="#FFC863"/><mask id="b" maskUnits="userSpaceOnUse" x="-1" y="0" width="187" height="187"><path d="M186 93A93 93 0 1 1 0 93a93 93 0 0 1 186 0z" fill="#E6F2FF"/></mask><g mask="url(#b)"><path d="M79 56.8L36.4 99.4-5.4 57.6 38 16.9l41 40z" fill="#225784"/><path d="M1.7 51l28.1 27.8.8-.7L2.5 50l-.8.8zm10-9.4l-.9.7L38.7 70l.7-.8-24.8-24.7-3-2.9zm9.7-9.2l-.8.8 27.5 27.3.8-.8L24 35.1l-2.6-2.7zM33 26l-2.4-2.3-.8.7 27.3 27 .7-.7L33.1 26z" fill="#40A0FF"/></g><path d="M79 56.8L36.4 99.4 22 85l43.1-41.7L79 56.8z" fill="#40A0FF"/><path d="M79 56.8L36.4 99.4l20.8 20.8 42.6-42.6L79 56.8z" fill="#CC9633"/><path d="M69.9 138a8.4 8.4 0 0 1 0-11.8L102 93.9l11.8 11.8L81.7 138a8.4 8.4 0 0 1-11.8 0z" fill="#FFC863"/><path d="M57.9 126.6a8.4 8.4 0 0 1 0-11.8l32.2-32.2L102 94.4l-32.2 32.2a8.4 8.4 0 0 1-11.8 0zm24.4 22.1a8.4 8.4 0 0 1 0-11.9l32.3-32.2 11.8 11.8-32.2 32.3a8.4 8.4 0 0 1-11.9 0z" fill="#FFC863"/><path d="M68.3 72.8l13.4-13.3 29.8 29.8a9.4 9.4 0 0 1-13.3 13.3L68.3 72.8z" fill="#CC9633"/><path d="M68.5 128.2a.6.6 0 0 1-.4-.1.6.6 0 0 1 0-.9l20-20a.6.6 0 0 1 1 .4c0 .1 0 .3-.2.4l-20 20c-.1.2-.3.2-.4.2zm11.3 12a.6.6 0 0 1-.5-.3.6.6 0 0 1 .1-.7l20-20a.6.6 0 0 1 .7-.2.6.6 0 0 1 .4.5.6.6 0 0 1-.2.5l-20 20a.6.6 0 0 1-.5.2z" fill="#225784"/><mask id="c" maskUnits="userSpaceOnUse" x="-1" y="0" width="187" height="187"><path d="M186 93A93 93 0 1 1 0 93a93 93 0 0 1 186 0z" fill="#E6F2FF"/></mask><g mask="url(#c)"><path d="M101.2 56.5L143.7 99l44-43.1-42-42.5-44.5 43z" fill="#31D3B4"/></g><path d="M143.7 99l-42.5-42.5 14.3-14L158 84.8l-14.3 14.3z" fill="#C8E4FF"/><path d="M142 86.9a3.5 3.5 0 1 0 0-7 3.5 3.5 0 0 0 0 7zm-105.2 0a3.5 3.5 0 1 0 0-7 3.5 3.5 0 0 0 0 7z" fill="#fff"/></g><defs><clipPath id="a"><path fill="#fff" d="M0 0h186v186H0z"/></clipPath></defs></svg>
