<svg xmlns="http://www.w3.org/2000/svg" fill="none" viewBox="0 0 186 186"><g clip-path="url(#a)"><path fill="#31D3B4" d="M143 42a8 8 0 1 1 17 0h-17Z"/><path fill="#40A0FF" d="M143 42c0-5 4-8 9-8h-48c-5 0-8 3-8 8v60h30c10 0 17-7 17-16V42Z"/><path fill="#225784" d="M118 67a8 8 0 1 1 16 0h-16Z"/><path fill="#88C4FF" d="M118 68c0-5 3-9 8-9H78c-4 0-8 4-8 9v60h31c9 0 17-8 17-17V68Z"/><path fill="#40A0FF" d="M94 97a8 8 0 1 1 16 0H94Z"/><path fill="#E6F2FF" d="M94 97c0-5 4-9 8-9H55c-5 0-9 4-9 9v60h31c9 0 17-7 17-17V97Z"/><path fill="#40A0FF" d="M65 145H27c0 7 6 12 13 12h38c-7 0-13-5-13-12Z"/><path fill="#225784" d="M60 136h-3l8-29h3l-8 29Zm12 0h-4l8-29h4l-8 29Z"/><path fill="#225784" d="M85 117H54l1-3h31l-1 3Zm-3 11H51l1-4h31l-1 4Z"/></g><defs><clipPath id="a"><path fill="#fff" d="M0 0h186v186H0z"/></clipPath></defs></svg>
