<svg width="186" height="186" fill="none" xmlns="http://www.w3.org/2000/svg"><g clip-path="url(#a)"><path d="M59.5 71.3H45.8l29-41.3h13.6l-29 41.3z" fill="#225784"/><path d="M103.7 137H54.4V67.6l24.7-35 24.6 35v69.2z" fill="#C8E4FF"/><path d="M136 67.7h-32.3v69.2H136V67.7z" fill="#40A0FF"/><path d="M103.7 71.3H139L110 30H74.8l29 41.3z" fill="#31D3B4"/><path d="M90.3 71.2a12 12 0 1 1-24 0 12 12 0 0 1 24 0z" fill="#40A0FF"/><path d="M90.3 71.2A12 12 0 0 1 81 82.9a12 12 0 0 1 0-23.4 12 12 0 0 1 9.3 11.7z" fill="#225784"/><path d="M83.6 94.3a3.5 3.5 0 0 0-3.2-3.4H51.5v7h28.9a3.5 3.5 0 0 0 3.2-3.6z" fill="#FFC863"/><path d="M51.5 97.8a3.5 3.5 0 1 0 0-7 3.5 3.5 0 0 0 0 7z" fill="#CC9633"/><path d="M154.3 137H27v5.4h127.3v-5.5z" fill="#FFC863"/><path d="M136 71.3h-32.3v1.3H136v-1.3z" fill="#225784"/><path d="M38.7 142.6s1.8 8-2.3 13c-4 4.8-12.3 4.5-12.3 4.5s-1.8-8.2 2.2-13c4-4.8 12.4-4.5 12.4-4.5z" fill="#31D3B4"/><path d="M36.4 155.5c4-4.8 2.3-13 2.3-13L24 160.2s8.3.3 12.3-4.6z" fill="#00B799"/><path d="M27 136.7s-6-.4-8.7-4.3c-2.6-3.9-.7-9.7-.7-9.7s6.2.4 8.8 4.3c2.6 3.8.7 9.7.7 9.7z" fill="#31D3B4"/></g><defs><clipPath id="a"><path fill="#fff" d="M0 0h186v186H0z"/></clipPath></defs></svg>