<svg fill="none" height="158" width="186" xmlns="http://www.w3.org/2000/svg"><path d="m18.6 115.3h17.1v-21.9h-17.1v22z" fill="#ff4b4b"/><path d="m111 36.7-3.6 14.4 9.1 9.2 11.6-7.5-1.5-16h-15.6z" fill="#ffc863"/><path d="m84.1 115.3h-83.6v6.2h83.6z" fill="#88c4ff"/><path d="m185.8 103.5c0 5.9-4.4 10.7-10.3 10.8l-28 .7v19.6h-64.5v-48.6l-4.5 2.4-5.6 3-6.3 3.3-2.9 1.6-9.4 5a6 6 0 0 1 -2.5.7 12.2 12.2 0 0 1 -12.8-12.6l-.2-41.7v-10.5h22.4a2588.4 2588.4 0 0 1 .6 28.9l28.5-9.8a114 114 0 0 1 18.2-4 70.7 70.7 0 0 1 24 1.5c4 1.1 8 2.5 11.9 4.2a33 33 0 0 1 10.8 7.6l27.6 30.4c2 2 3 4.7 3 7.5z" fill="#40a0ff"/><path d="m56.1 100.3.8-.5v-51.7h-.8zm20.6-11 .7-.4v-28.2l-.7.3zm-6.9 3.7.8-.5v-29.5l-.8.3zm78 22h.8v-54.8l-.8-.5zm-84.8-18.4.8-.4v-30.8l-.8.3v31zm113.3 17.7.8-.1v-24.5l-.8-.9zm-92.5 20.3h.8v-76.3l-.8.2zm99.6-37.9v13.7l.8-1.1v-11.4zm-21.3 18h.8v-40.7l-.8-.9zm7.1-.2h.8v-32.6l-.8-1zm-14.2-49.2v49.5h.8v-48.7l-.6-.6zm-14.3 69.3h.8v-77.8l-.8-.3zm-7.1 0h.8v-80.2l-.8-.3zm-35.6 0h.8v-80.6l-.8.2v80.5zm-48.7-32.9.8.1v-53.7h-.8zm70 33h.9v-82.9h-.8v82.7zm-76.8-36.7.8.8v-50.7h-.8v50zm62.7 36.5h.8v-82h-.8zm-14.2 0h.8v-78.5l-.8.2v78.5zm21.3 0h.8v-82.7h-.8v82.8zm14.3 0h.8v-81.8l-.8-.1v82z" fill="#88c4ff"/><path d="m110 95-4.5 4.7-8.2-9a2.7 2.7 0 0 1 3.9-3.9l8.7 8.1z" fill="#ffc863"/><path d="m103.2 117h-26a5.8 5.8 0 0 1 -5.2-4l-11.2-38.7c-.7-2.2.6-4 2.8-4h26c2.1 0 4.4 1.8 5 4l11.4 38.5c.6 2.2-.6 4-2.8 4z" fill="#1d1d1b"/><path d="m101 117h-25.8a5.8 5.8 0 0 1 -5.2-4l-11.3-38.7c-.7-2.2.6-4 2.8-4h26c2.1 0 4.5 1.8 5.1 4l11.3 38.5c.6 2.2-.6 4-2.8 4z" fill="#96e9d9"/><path d="m81 99.1a7.9 7.9 0 0 1 -7-5.6c-.5-1.5-.2-3 .6-4.1s2.1-1.7 3.6-1.7c3.1 0 6.3 2.5 7.2 5.6.4 1.6.2 3-.7 4.2-.8 1-2.1 1.6-3.6 1.6zm-6.3-5.8a7 7 0 0 0 6.4 5c1.2 0 2.3-.4 3-1.3a4 4 0 0 0 .5-3.5 7 7 0 0 0 -6.4-5c-1.2 0-2.3.5-3 1.4a4 4 0 0 0 -.5 3.4zm27.3-40.1 8.1 7.1 4-8.5-5.7-4.8-6.5 6.2zm30.6.8-17.2 6.8-1.2-9 13.5-4.8z" fill="#fff"/><path d="m61.9 68.8a.3.3 0 0 1 -.4-.3v-2l-1.5.5a.3.3 0 0 1 -.1-.6l1.8-.6a.3.3 0 0 1 .4.3v2.4a.3.3 0 0 1 -.2.3z" fill="#1d1d1b"/><path d="m130.5 34a4 4 0 1 0 0-8.1 4 4 0 0 0 0 8.1z" fill="#ffc863"/><path d="m116.8 39a14.8 14.8 0 1 0 0-29.6 14.8 14.8 0 0 0 0 29.7z" fill="#ffc863"/><g fill="#cc9633"><path d="m106.1 16.4a.4.4 0 0 1 -.3-.5l.1-.2c.2 0 2.8-1.5 5-.5l.2.2a.4.4 0 0 1 -.3.5h-.3c-1.7-.8-4.1.5-4.2.5zm11.9 3.9a.4.4 0 0 1 -.3-.3c-.5-1.9-3-3-3-3a.4.4 0 1 1 .3-.7s2.9 1.2 3.5 3.5a.4.4 0 0 1 -.3.5h-.1z"/><path d="m132 26.1s-15.2-4.2-16.6-13.6c0 0-10.4 2.7-11.4-.4-1-3 4-2.3 4-2.3s-3.8-1-2.6-3.3c.8-1.6 5.3.8 5.3.8s-3.4-2.6-1.9-4c1.7-1.7 16.5 3.3 21.6 11 3.6 5.4 1.6 11.7 1.6 11.7z"/><path d="m127.9 24.5s-.5 3.7-1.9 5.1a4.3 4.3 0 0 1 -5.2.7c-2-1-3-3.5-4.7-5.1-1.7-1.7-6.7-2-6.7-2s-5.3-.3-7.4 1.9l-1.2 5.7a9.1 9.1 0 0 0 1 6.4c1.2 2.3 3.5 4 6.7 4.3l7.8.4c5.8-.3 7.2-1.1 10.4-3.6 1.6-1.3 2-2.8 2.5-4.7l1.8-8.5z"/></g><path d="m115 22.7a.7.7 0 1 0 0-1.3.7.7 0 0 0 0 1.3zm-8-1.6a.7.7 0 1 0 0-1.4.7.7 0 0 0 0 1.4z" fill="#1d1d1b"/><path d="m106.3 26.7a3.4 3.4 0 0 0 6.7.7z" fill="#fff"/><path d="m56.9 37.2 9.6-6.8a2.6 2.6 0 0 0 -.7-4.7c-.6-.2-1.1-.1-1.6 0l-6.5 2.4 4.2-10.3a2.6 2.6 0 0 0 -1.3-3.3 2.6 2.6 0 0 0 -3.5 1.2l-4.4 9.4-.3-10.4a2.9 2.9 0 0 0 -3.1-2.8 3 3 0 0 0 -2.8 2.9l-.1 11-4.3-9.4a2.3 2.3 0 0 0 -4.3 1.6l4.7 16.4v2.8z" fill="#ffc863"/><path d="m57.5 28.3s-4-4.7-11-2.2l-.2-.5a11 11 0 0 1 8.6.1c1.1.5 2.2 1.3 3 2.2z" fill="#cc9633"/><path d="m61.9 37.2h-23.1v10.5h23v-10.5z" fill="#fff"/><path d="m117.3 28.5a6 6 0 0 1 -5.7-3.9 5.5 5.5 0 0 1 .3-4.3 5.8 5.8 0 0 1 3.4-3 6 6 0 0 1 7.7 3.7 5.5 5.5 0 0 1 -1.7 6.1 5.8 5.8 0 0 1 -4 1.4zm0-10.8a5.5 5.5 0 0 0 -3.6 1.2 5.2 5.2 0 0 0 -1.8 3.6c0 .6 0 1.3.3 2a5.4 5.4 0 0 0 9.9.5 4.9 4.9 0 0 0 .2-3.8 5.4 5.4 0 0 0 -5-3.5zm-12.8 7.9a6 6 0 0 1 -5.6-3.9 5.5 5.5 0 0 1 1.6-6.1 6 6 0 0 1 9.6 2.5 5.5 5.5 0 0 1 -.2 4.3 5.8 5.8 0 0 1 -3.5 3c-.6.1-1.2.3-1.9.2zm0-10.8a5.5 5.5 0 0 0 -3.6 1.3 5.2 5.2 0 0 0 -1.8 3.5c0 .7.1 1.3.3 2a5.4 5.4 0 0 0 10 .5 5 5 0 0 0 .2-3.8 5.4 5.4 0 0 0 -5.1-3.5z" fill="#ff4b4b"/><path d="m122.7 21.9-.2.5 9.7 3.7.2-.6zm-9.8-2.2-.6-.1a.9.9 0 0 0 -.2-.7 1 1 0 0 0 -.6-.4 1 1 0 0 0 -1 .7l-.7-.1a1.6 1.6 0 0 1 2.8-.5 1.4 1.4 0 0 1 .3 1.1z" fill="#ff4b4b"/><path d="m110.4 24.7h-.1l-2.5-.9a.3.3 0 0 1 -.1-.2v-.2l2.7-4.6a.3.3 0 0 1 .6.3l-2.6 4.3 2 .8.3.1v.2a.3.3 0 0 1 -.3.3zm46.9 70.1h-34.7a.3.3 0 0 1 -.2-.5h34.9a.3.3 0 0 1 .2.2.3.3 0 0 1 -.2.3zm-9.8 20.2h-27.6l27.6 5z" fill="#1d1d1b"/><path d="m153.4 94.8a.3.3 0 0 1 -.2-.1l-3.8-4.5a.3.3 0 0 1 0-.4.3.3 0 0 1 .5 0l3.7 4.5v.2c.1 0 0 0 0 .1a.3.3 0 0 1 -.2.2z" fill="#1d1d1b"/><path d="m110.6 93.6-16.5.9a3.2 3.2 0 0 0 .1 6.3h1.1a3.2 3.2 0 0 0 1.7 5.7h1.1a3.2 3.2 0 0 0 1.7 5.7l11.3.8z" fill="#ffc863"/><path d="m122.1 93.6h-12.8v21.4h12.8z" fill="#fff"/><path d="m20.7 110.7h-3.7a5.8 5.8 0 0 1 0-11.5h3.2v1.8h-3.2a4 4 0 0 0 0 7.9h3.7z" fill="#ff4b4b"/><path d="m27 110.7c2 0 3.6-2.8 3.6-6.3s-1.6-6.4-3.5-6.4c-2 0-3.6 2.9-3.6 6.4s1.6 6.3 3.6 6.3z" fill="#ff7374"/><path d="m20.8 93.4c3.1-1.1 4.7-3.6 4.8-4.9a3.3 3.3 0 0 0 -1-2.4c-4.5-5 2.6-10.5 2.6-10.5-2.7 8.8 4 6 6 10.1 2 4-.2 7.7-.2 7.7z" fill="#fff"/><path d="m82.5 153.8a76.2 76.2 0 0 0 65-18.6v-.6h-64.5l-.6 19.2z" fill="#225784"/></svg>