<svg xmlns="http://www.w3.org/2000/svg" fill="none" viewBox="0 0 186 186"><g clip-path="url(#a)"><path fill="#31D3B4" d="M146 41a16 16 0 0 1 32 0h-32Z"/><path fill="#E6F2FF" d="M146 41a16 16 0 0 1 17-16H76a16 16 0 0 0-16 16v120h64a22 22 0 0 0 22-20V41Z"/><path fill="#40A0FF" d="M103 139H35a23 23 0 0 0 23 22h67a23 23 0 0 1-22-22Z"/><path fill="#C8E4FF" d="M134 75h-15v8h15v-8Zm-22 0H71v8h41v-8Zm22 17h-15v8h15v-8Zm-22 0H71v8h41v-8Zm22 15h-15v8h15v-8Zm-22 0H71v8h41v-8Z"/><path fill="#C8E4FF" fill-rule="evenodd" d="M71 128h63v1H71v-1Z" clip-rule="evenodd"/><path fill="#225784" fill-rule="evenodd" d="M133 59h-25v-1h25v1Zm0-9h-25v-1h25v1Zm0-9h-25v-1h25v1Z" clip-rule="evenodd"/><path fill="#31D3B4" d="M85 61a11 11 0 1 0 0-23 11 11 0 0 0 0 23Z"/><path fill="#fff" fill-rule="evenodd" d="M86 43a6 6 0 1 0 4 10l1 1a8 8 0 1 1-1-11l-1 1-3-1Z" clip-rule="evenodd"/><path fill="#fff" fill-rule="evenodd" d="M86 47h-9v-1h9v1Zm0 5h-9v-2h9v2Z" clip-rule="evenodd"/><path fill="#FFC863" d="M67 58H14v68h53V58Z"/><path fill="#CC9633" d="M67 58h-7v68h7V58Z"/><path fill="#225784" d="M53 63H21v11h32V63Z"/><path fill="#fff" fill-rule="evenodd" d="M26 79a3 3 0 1 0 0 7 3 3 0 0 0 0-7Zm-5 4a4 4 0 1 1 9 0 4 4 0 0 1-9 0Zm5 8a3 3 0 1 0 0 7 3 3 0 0 0 0-7Zm-5 3a4 4 0 1 1 9 0 4 4 0 0 1-9 0Zm5 8a3 3 0 1 0 0 7 3 3 0 0 0 0-7Zm-5 4a4 4 0 1 1 9 0 4 4 0 0 1-9 0Zm15-27a3 3 0 1 0 0 7 3 3 0 0 0 0-7Zm-4 4a4 4 0 1 1 9 0 4 4 0 0 1-9 0Zm4 8a3 3 0 1 0 0 7 3 3 0 0 0 0-7Zm-4 3a4 4 0 1 1 9 0 4 4 0 0 1-9 0Zm4 8a3 3 0 1 0 0 7 3 3 0 0 0 0-7Zm-4 4a4 4 0 1 1 9 0 4 4 0 0 1-9 0Zm-6 7a3 3 0 1 0 0 7 3 3 0 0 0 0-7Zm-5 4a4 4 0 1 1 9 0 4 4 0 0 1-9 0Z" clip-rule="evenodd"/><path fill="#FF7374" fill-rule="evenodd" d="M35 113c-1 0-2 1-2 3v2l2 2h13c2 0 3-1 3-2v-2c0-2-1-3-3-3H35Zm-3 3c0-2 2-4 3-4h13c2 0 4 2 4 4v2c0 2-2 3-4 3H35c-1 0-3-1-3-3v-2Z" clip-rule="evenodd"/><path fill="#fff" fill-rule="evenodd" d="M47 79a3 3 0 1 0 0 7 3 3 0 0 0 0-7Zm-4 4a4 4 0 1 1 9 0 4 4 0 0 1-9 0Zm4 8a3 3 0 1 0 0 7 3 3 0 0 0 0-7Zm-4 3a4 4 0 1 1 9 0 4 4 0 0 1-9 0Zm4 8a3 3 0 1 0 0 7 3 3 0 0 0 0-7Zm-4 4a4 4 0 1 1 9 0 4 4 0 0 1-9 0Z" clip-rule="evenodd"/></g><defs><clipPath id="a"><path fill="#fff" d="M0 0h186v186H0z"/></clipPath></defs></svg>
