<svg width="186" height="186" fill="none" xmlns="http://www.w3.org/2000/svg"><g clip-path="url(#a)"><path d="M58.9 45.8h-9.6v104h9.6v-104z" fill="#31D3B4"/><path d="M148.4 45.8H59v12.3h89.5V45.8z" fill="#40A0FF"/><path d="M148.4 58H59v30.6h89.5V58.1zm0 30.7H59v30.5h89.5V88.7zm0 30.5H59v30.6h89.5v-30.6z" fill="#C8E4FF"/><path d="M148.4 88.2H59v.9h89.5v-1zm0 31.1H59v.9h89.5v-1zm0-61.8H59v1h89.5v-1z" fill="#fff"/><path d="M59.3 45.8h-.9v104h1v-104z" fill="#225784"/><path d="M53.1 77.5a20.8 20.8 0 1 0 0-41.5 20.8 20.8 0 0 0 0 41.5z" fill="#FFC863"/><path d="M65 53.3h-8.4v-8.4h-7v8.4h-8.4v7h8.5v8.3h6.9v-8.4H65v-7z" fill="#fff"/><path d="M58.9 88.2h-9.6v.9H59v-1zm0 31.1h-9.6v.9H59v-1z" fill="#225784"/></g><defs><clipPath id="a"><path fill="#fff" d="M0 0h186v186H0z"/></clipPath></defs></svg>