<svg width="195" height="186" fill="none" xmlns="http://www.w3.org/2000/svg"><path d="m135.25 65.96-2.62 20.76-3.1 24.45-2.56 20.22a23 23 0 0 1-42.67 8.73l.55 3.74 1.1 7.48H19.9A19.9 19.9 0 0 1 .06 133.07c-.03-.33-.05-.66-.06-1l1.27-32.5.04-.92c.17-1.14.34-2.27.52-3.37.9-5.43 2.1-10.23 4.44-14.24 4.08-6.98 11.66-11.53 27.35-12.81l1.98-.14h28.91l-.01-.01h8c.3 0 .6 0 .9.02h.32v.01a21.9 21.9 0 0 1 18.6 12.56l1.33 2.83 10.98 23.38.58-3.24 4.67-25.8 2.14-11.88h23.23Z" fill="#31D3B4"/><path d="m34.6 68.16-.5.03-4.96 83.05.5.03 4.96-83.11ZM100.77 98.66l-3.04 50.6.5.02 2.98-49.68-.44-.94ZM7.07 146.65l.48.39 4.34-72.29-.53.4-4.29 71.5ZM90.26 146.83l.48.35 3.72-61.95-.44-.94-3.76 62.54ZM117.95 65.96l-4.98 82.96.5.03 4.98-82.99h-.5ZM110.25 75.74l-.37 2.1-.37 2.03-4.16 69.21.5.03 4.4-73.37ZM120.86 144.31l.53-.59 4.67-77.76h-.5l-4.7 78.35ZM133.68 65.96h-.5l-1.88 31.25.95-7.5 1.43-23.75ZM19.36 70.93l-.51.18-4.77 79.36.5.14 4.78-79.68ZM80.19 69.47l-.49-.18-4.83 80.46.5.03 4.82-80.3ZM87.05 73.61l-4.56 75.97.5.03 4.53-75.56-.47-.44ZM1.5 139.02c.13.33.27.65.42.97l4.14-58.57c-.2.36-.4.72-.58 1.08L1.5 139.02ZM72.67 68.08h-.5l-4.92 83.26h.5l4.92-83.26ZM21.53 151.34h.5l4.9-82.3-.5.1-4.9 82.2ZM42.25 68.09h-.5l-4.99 82.98.5.03 4.99-83.01ZM65.05 68.07h-.5l-4.92 83.25.24.02h.25l4.93-83.27ZM57.5 68.1H57l-5 83.14.5.03 5-83.18ZM44.39 151.34h.5l5-83.25h-.5l-5 83.25Z" fill="#96E9D9"/><path d="M60.92 25.31a4.6 4.6 0 1 0 0-9.2 4.6 4.6 0 0 0 0 9.2Z" fill="#1D1D1B"/><path d="M61.07 68.37c0 4.72-6.31 8.54-14.1 8.54s-14.1-3.82-14.1-8.54v-.14l1.99-.14h26.21v.28Z" fill="#96E9D9"/><path d="m30.14 43.61 5.8 24.65c1.35 6.02 19.3 8.61 22.28-.08l-9.06-23.99-19.02-.58Z" fill="#FFC863"/><path d="M28.32 49.27a5.14 5.14 0 1 0 0-10.27 5.14 5.14 0 0 0 0 10.27Z" fill="#FFC863"/><path d="M68.05 28.54c1.96 10.13-5.84 20.05-17.58 22.31-11.74 2.27-22.97-3.97-24.93-14.1-1.95-10.14 5.98-20.2 17.72-22.46C55 12.02 66.1 18.4 68.06 28.53Z" fill="#FFC863"/><path d="M49.47 32.81a.88.88 0 1 0 0-1.75.88.88 0 0 0 0 1.75ZM59.83 30.08a.88.88 0 1 0 0-1.76.88.88 0 0 0 0 1.76Z" fill="#1D1D1B"/><path d="M53.64 34.53a.5.5 0 0 1-.07-.99l3.19-.45-2.65-4.92a.5.5 0 0 1 .2-.67.5.5 0 0 1 .67.2l3 5.55a.5.5 0 0 1 0 .46.5.5 0 0 1-.38.26l-3.89.56h-.07ZM55.71 23.94a.5.5 0 0 1-.3-.89 6.25 6.25 0 0 1 6.36-.75.5.5 0 0 1-.41.9 5.24 5.24 0 0 0-5.34.63.5.5 0 0 1-.3.11ZM43.32 31.38a.5.5 0 0 1-.49-.6 6.26 6.26 0 0 1 4.45-4.63.5.5 0 1 1 .25.96 5.25 5.25 0 0 0-3.73 3.87.5.5 0 0 1-.48.4Z" fill="#CC9633"/><path d="M50.42 37.3a4.43 4.43 0 0 0 8.65.17l-8.65-.18Z" fill="#fff"/><path d="m51.6 50.6-5.5 1.24 6.97 2.65-1.47-3.89ZM27.65 46.89a2.42 2.42 0 0 1-2.24-2.07c-.14-1.34.88-2.27 1.92-2.45l.13.73c-.56.1-1.42.64-1.31 1.64.06.61.55 1.15 1.2 1.36.6.18 1.37-.26 1.61-.92l.7.25a2.21 2.21 0 0 1-2 1.45ZM63.85 133.15h-.07l-34.84-7.05a.37.37 0 0 1-.3-.38l1.37-28.58c.01-.2.19-.35.4-.35.2 0 .36.18.35.39l-1.36 28.26 34.52 6.97a.37.37 0 0 1-.07.74Z" fill="#1D1D1B"/><path d="M27.4 129.76a.37.37 0 0 1-.34-.52l1.2-2.73-2.19 1.06a.37.37 0 0 1-.32-.67l3.1-1.5c.15-.06.31-.03.43.07.1.11.14.28.08.42l-1.62 3.65a.37.37 0 0 1-.34.22ZM104.27 111.03h-.03a.37.37 0 0 1-.34-.4l.33-4.3a.37.37 0 0 1 .7-.15l1.99 3.64a.37.37 0 1 1-.66.36l-1.39-2.54-.23 3.06a.37.37 0 0 1-.37.34Z" fill="#1D1D1B"/><path d="m117.36 53.18 10.7-14.16a2.02 2.02 0 0 1 3.38 2.15l-6.63 12.41-7.45-.4Z" fill="#FFC863"/><path d="m134.59 65.93 1.57-17.8-11.05-2.08-10.57 19.97 20.05-.09Z" fill="#FFC863"/><path d="M150.04 64.91h-23.7c-1.58 0-2.87-1.38-2.88-3.08V49.29c-.02-1.7 1.1-3.08 2.68-3.08h23.7c1.57 0 2.86 1.38 2.88 3.08l.14 12.54c.01 1.7-1.25 3.08-2.82 3.08Z" fill="#225784"/><path d="M149.01 64.91h-23.7c-1.57 0-2.86-1.38-2.88-3.08V49.29c-.02-1.7 1.11-3.08 2.69-3.08h23.7c1.57 0 3 1.38 3.01 3.08v12.54c.02 1.7-1.24 3.08-2.82 3.08Z" fill="#40A0FF"/><path d="m149.24 50.52-1.11-.1s-.08-1.97-2.47-1.76c-3.27.29-5.18-.18-5.82-.42a.18.18 0 0 0-.24.18c.1 2.51 1.66 3.05 1.66 3.05h-.93c1.43 3.03 3.77 3.14 5.29 2.66 1.33-.42 2.25-1.3 2.46-2.6l1.16-1v-.01Z" fill="#225784"/><path d="M146.31 63a2.05 2.05 0 1 0 0-4.1 2.05 2.05 0 0 0 0 4.1Z" fill="#FFC863"/><path d="M143.36 63a2.05 2.05 0 1 0 0-4.1 2.05 2.05 0 0 0 0 4.1Z" fill="#FF4B4B"/><path d="M145.41 60.95c0 .55-.22 1.05-.57 1.42a2.03 2.03 0 0 1 0-2.85c.35.37.57.87.57 1.43Z" fill="#FF7374"/><path d="M136.7 63.1h-9.83a.25.25 0 0 1-.25-.24c0-.14.1-.25.24-.25h9.84a.25.25 0 0 1 0 .5ZM133.26 60.75h-6.4a.25.25 0 0 1-.24-.25c0-.14.1-.25.24-.25h6.4a.25.25 0 1 1 0 .5Z" fill="#fff"/><path d="m114.21 65.92 2.55-11.16a4.12 4.12 0 0 1 2.19-2.78l8.13-4.02a1.8 1.8 0 0 1 2.28 1.14c.32.97-.06 2.04-.93 2.6l-5.3 3.35.15 1.1a8.96 8.96 0 0 1 1.83 6l-.24 3.77h-10.66ZM132.4 46.72a2.24 2.24 0 1 0 0-4.48 2.24 2.24 0 0 0 0 4.48Z" fill="#FFC863"/><path d="M136.87 46.72a2.24 2.24 0 1 0 0-4.48 2.24 2.24 0 0 0 0 4.48Z" fill="#FFC863"/><path d="M26.82 39.26s4.7.46 6.27 3.97l.2.5 2.69-.86-2.49-8.7s8.76-7.58 6.33-15.16c-.02-.09 2.55 4.84 6.34 3.04 3.8-1.8 1.68-5.59 1.68-5.59s10.07 5.17 11.54-1.14c1.22-5.26-6.05-5.05-6.05-5.05s6.74-5.09-.64-6.98c-3.58-.91-6.68 1.51-8.5 3.47-1.31 1.39-2.97 2.4-4.8 2.97-5.04 1.61-14.74 6.07-16.27 16.92-.94 6.59 2.98 12.93 2.98 12.93l.72-.32Z" fill="#CC9633"/><path d="M83.81 129.84a.38.38 0 0 1-.36-.3l-7.46-38.27a.37.37 0 1 1 .73-.14l7.46 38.27a.37.37 0 0 1-.37.44Z" fill="#1D1D1B"/><path d="m83.22 138.14-14.67 1.75-2.6-7.23 14.66-1.75c2.77-.63 5.2 1.25 5.37 3.25.17 2-1.06 3.78-2.76 3.98Z" fill="#CC9633"/><path d="m63.8 132.3 16.59 3.7c.7.1 1.38.3 2.03.6l13.25 6.16c2.7 1.25 4.46 4.32 4.46 7.74v.75H63.8V132.3Z" fill="#FFC863"/><path d="m182.98 165.9-135.73-.4v-14.69l135.73.4v14.68Z" fill="#88C4FF"/><path d="M47.25 150.84v15.05l-7.63-.02c-4.74-4.55-10.73-9.6-14.48-15.06l22.11.03Z" fill="#40A0FF"/><path d="M184.64 76.3H118.5a6.37 6.37 0 0 0-6.37 6.37v45.32a6.37 6.37 0 0 0 6.37 6.37h66.15a6.37 6.37 0 0 0 6.38-6.37V82.67a6.37 6.37 0 0 0-6.38-6.38Z" fill="#fff"/><path d="M188.32 76.3h-66.15a6.37 6.37 0 0 0-6.38 6.37v45.32a6.37 6.37 0 0 0 6.38 6.37h66.15a6.37 6.37 0 0 0 6.37-6.37V82.67a6.37 6.37 0 0 0-6.37-6.38Z" fill="#40A0FF"/><path d="M153.25 121.26h-2.72a3.2 3.2 0 0 0-3.18 3.66l3.23 22.83h-11.12a1.97 1.97 0 0 0 0 3.94h17.73l-3.94-30.44Z" fill="#C8E4FF"/><path d="M165.44 151.69h-11.61l-3.79-26.83a3.21 3.21 0 0 1 3.18-3.66h9.28a3.2 3.2 0 0 1 3.18 2.76l3.33 23.56a3.66 3.66 0 0 1-3.58 4.17Z" fill="#225784"/><path d="M153.25 147.63s1 4.03-2.76 4.05h3.67l-.91-4.06Z" fill="#225784"/><path d="M156.25 112.26a7.19 7.19 0 1 1 .01-14.37 7.19 7.19 0 0 1 0 14.37Zm0-13.86a6.7 6.7 0 1 0 .02 13.38 6.7 6.7 0 0 0-.02-13.38ZM129.31 146.79h-48.5c-1.32 0-2.39.9-2.39 2.01 0 1.11 1.07 2.01 2.4 2.01h48.5c1.31 0 2.39-.9 2.39-2.01 0-1.11-1.08-2.01-2.4-2.01ZM108.58 48.26c-.33 0-.6-.22-.7-.56l-.48-1.74a2.33 2.33 0 0 0-1.32-1.55l-1.05-.44a.79.79 0 0 1-.47-.74c0-.33.19-.62.47-.74l1.05-.44a2.33 2.33 0 0 0 1.32-1.55l.48-1.73c.1-.34.37-.56.7-.56.33 0 .61.22.7.56l.49 1.73c.2.72.68 1.28 1.32 1.55l1.05.44c.28.12.47.41.47.74a.8.8 0 0 1-.47.74l-1.05.44c-.64.27-1.12.83-1.32 1.55l-.48 1.74a.73.73 0 0 1-.7.56Zm0-9.55c-.04 0-.2.01-.25.2l-.48 1.74a2.82 2.82 0 0 1-1.6 1.87l-1.05.44c-.16.07-.17.22-.17.27 0 .05 0 .2.17.27l1.05.44c.77.33 1.35 1 1.6 1.87l.48 1.74c.05.19.2.2.25.2.05 0 .2-.01.26-.2l.48-1.74c.24-.86.82-1.54 1.6-1.87l1.05-.44c.15-.07.17-.22.17-.27 0-.05-.01-.2-.17-.27l-1.05-.44c-.78-.33-1.36-1.01-1.6-1.87l-.48-1.74a.26.26 0 0 0-.26-.2ZM116 27.43l.39 1.28c.17.57.6 1.04 1.16 1.26l.84.32a.4.4 0 0 1 0 .75l-.84.32c-.56.22-.99.69-1.16 1.26L116 33.9c-.11.38-.65.38-.76 0l-.38-1.28a1.96 1.96 0 0 0-1.17-1.26l-.83-.32a.4.4 0 0 1 0-.75l.83-.32c.56-.22 1-.69 1.17-1.26l.38-1.28c.12-.38.65-.38.76 0ZM160.8 60.65l.46 1.46c.2.66.7 1.19 1.35 1.44l.98.37c.39.15.39.7 0 .85l-.98.37c-.65.25-1.15.78-1.35 1.44l-.45 1.46c-.14.44-.76.44-.9 0l-.44-1.46c-.2-.66-.7-1.19-1.36-1.44l-.97-.37a.45.45 0 0 1 0-.85l.97-.37a2.25 2.25 0 0 0 1.36-1.44l.45-1.46c.13-.43.75-.43.89 0Z" fill="#fff"/></svg>
