<svg fill="none" height="186" width="186" xmlns="http://www.w3.org/2000/svg" xmlns:xlink="http://www.w3.org/1999/xlink"><clipPath id="a"><path d="m0 0h186v186h-186z"/></clipPath><g clip-path="url(#a)"><path d="m63.1 116.9-5.8 34.5 1 .2 5.8-34.5z" fill="#225784"/><path d="m57.5 154a3.4 3.4 0 1 0 0-6.7 3.4 3.4 0 0 0 0 6.7z" fill="#40a0ff"/><path d="m132.7 94.1-.7.7 25.2 24.5.6-.7-25.1-24.6z" fill="#225784"/><path d="m157.5 122.1a3.2 3.2 0 1 0 0-6.4 3.2 3.2 0 0 0 0 6.4z" fill="#40a0ff"/><path d="m96 103.9-.8.3 10.8 33.3 1-.3-11-33.2z" fill="#225784"/><path d="m161.9 79.4c3 9.5-24.7 27-62.2 39.3-37.4 12.2-70.2 14.5-73.3 5l-4-12.5 135.4-44.3z" fill="#225784"/><path d="m95.7 106.2c37.4-12.3 65.2-29.8 62.1-39.3-3-9.4-36-7.2-73.3 5-37.5 12.3-65.3 29.8-62.2 39.3 3.1 9.4 36 7.2 73.4-5z" fill="#31d3b4"/><path d="m106.7 141.4a3.4 3.4 0 1 0 0-6.7 3.4 3.4 0 0 0 0 6.7z" fill="#40a0ff"/><path d="m121.6 74.3c1.4 4.1-9.5 11.5-25 17.4a136.8 136.8 0 0 1 -20.2 5.8c-11.8 2.4-20.6 2-21.7-1.4-1.3-3.9 8.1-10.6 22-16.2a135.4 135.4 0 0 1 18.3-6c14.2-3.4 25.4-3.5 26.6.4z" fill="#c8e4ff"/><path d="m54.7 96.1-.8-32a26.5 26.5 0 0 1 47.7-16.6l19.4 25.7-66.3 23z" fill="#c8e4ff"/><path d="m67.2 60a6.5 6.5 0 1 0 0-13 6.5 6.5 0 0 0 0 13z" fill="#fff"/><path d="m31.8 124.7a2.6 2.6 0 1 0 0-5.2 2.6 2.6 0 0 0 0 5.2zm19.9.7a2.6 2.6 0 1 0 0-5.2 2.6 2.6 0 0 0 0 5.2zm18.8-2.7a2.6 2.6 0 1 0 0-5.2 2.6 2.6 0 0 0 0 5.2zm18.2-4.5a2.6 2.6 0 1 0 0-5.2 2.6 2.6 0 0 0 0 5.2zm64.5-30.5a2.5 2.5 0 1 0 0-5 2.5 2.5 0 0 0 0 5zm-12.6 8.7a2.6 2.6 0 1 0 0-5.2 2.6 2.6 0 0 0 0 5.2zm-16.8 8.9a2.6 2.6 0 1 0 0-5.2 2.6 2.6 0 0 0 0 5.2zm-17.3 7a2.6 2.6 0 1 0 0-5.1 2.6 2.6 0 0 0 0 5.1z" fill="#ffc863"/><path d="m93.7 66.5 8.3 23a116.6 116.6 0 0 1 -25.6 8v-26l-.1-3a9.1 9.1 0 0 1 13.4-8.3l2.7 4z" fill="#40a0ff"/><path d="m89.7 60.2 8.6-2.3-4.6 8.6z" fill="#ffc863"/><path d="m79.7 61-10.7 9.4 7.6 1.2z" fill="#40a0ff"/><path d="m86.4 65.3a1 1 0 1 0 0-2 1 1 0 0 0 0 2z" fill="#225784"/><path d="m35.7 45.1-4.7-4.6-4.7 4.6 4.7 4.7 4.6-4.7zm11.6-11.6-3.3-3.1-3 3.1 3.1 3.2z" fill="#c8e4ff"/><path d="m139.5 45.5-3.5-3.5-3.5 3.5 3.5 3.5z" fill="#ffc863"/></g></svg>