<svg width="186" height="186" fill="none" xmlns="http://www.w3.org/2000/svg"><g clip-path="url(#a)"><path d="M87.6 154.6h8.6V44.2h-8.6s-8.9 14.7-45 14.7v37.4c0 24.3 17.2 46.6 45 58.3" fill="#88C4FF"/><path d="M44.4 58.9h51.8V44.2h-8.6S79 58.4 44.4 58.9z" fill="#88C4FF"/><path d="M96.2 44.2s7.3 14.7 45 14.7v37.4c0 24.3-17.2 46.6-45 58.3-27.8-11.7-45-34-45-58.3V59c36.1 0 45-14.7 45-14.7z" fill="#40A0FF"/><path d="M87.3 123L68.2 88h13.1l12 22 21.2-38.8h13.1L99.4 123h-12z" fill="#fff"/><path d="M89.4 123L70.2 88h13.2l12 22 21.1-38.8h13.2L101.5 123H89.4z" fill="#FFC863"/><path d="M94.8 23h-1v10.5h1V23zm31.7 4.6L119 37.8l.8.6 7.6-10.2-.9-.6zm-64.3-.4l-.8.6L69 38l.8-.6-7.6-10.2z" fill="#225784"/></g><defs><clipPath id="a"><path fill="#fff" d="M0 0h186v186H0z"/></clipPath></defs></svg>