<svg width="186" height="186" fill="none" xmlns="http://www.w3.org/2000/svg"><g clip-path="url(#a)"><path d="M108.6 114a36.4 36.4 0 0 0 0-6.3l12-9-13.2-22.5L94 82a36 36 0 0 0-6.5-3.7l-1.7-14.7H59.6l-1.7 14.7c-2.6 1.1-5 2.6-7.3 4.4l-13.7-5.5-12.5 23 12.2 8.5a37 37 0 0 0 .2 6.4l-12 9 13 22.5 14-6c1.8 1.4 3.9 2.6 6 3.5l1.8 15h26.1l1.8-15a36 36 0 0 0 7-4.1l14 5.6 12.4-23-12.3-8.5zm-35.1 6a8.2 8.2 0 1 1-1.7-16.4 8.2 8.2 0 0 1 1.7 16.3z" fill="#40A0FF"/><path d="M136.6 47.3a20.9 20.9 0 0 0-.9-3.6l5.7-6.6-10.5-11.2-6.9 5.2c-1.3-.6-2.8-1-4.2-1.3l-3-8-14.8 3.4 1 8.5a21 21 0 0 0-3.6 3.5L91 36l-4 14.7 8 3.3a19.2 19.2 0 0 0 1 3.6L90.3 64l10.4 11.1 7.1-5.2c1.3.5 2.6.9 4 1.2l3 8.3 14.8-3.5-1-8.8c1.3-1 2.4-2 3.4-3.3l8.7 1.4 4-14.7-8-3.3zm-18 9.2a7 7 0 1 1-4.6-13.2 7 7 0 0 1 4.6 13.2z" fill="#FFC863"/><path d="M157.1 90.2a14.5 14.5 0 0 0-2-2l1-6.3-11-2.9-2.3 6c-1 .1-2 .4-3 .8l-5-4-8 8 4 5c-.5 1.1-.8 2.3-1 3.6l-5.8 2.5 3.2 10.8 6.4-1.2a37.9 37.9 0 0 0 2 2l-1 6.3 11 3 2.3-6.1 3-.8 5 4 8-8-4-5c.4-1.2.7-2.3.8-3.5l6-2.6-3.2-10.7-6.4 1zm-7.7 12.8a5.1 5.1 0 1 1-8-6.5 5.1 5.1 0 0 1 8 6.5z" fill="#31D3B4"/><path fill-rule="evenodd" clip-rule="evenodd" d="M80.2 95.8A17.6 17.6 0 1 0 65 127.7a17.6 17.6 0 0 0 15.2-31.9zm-5.8 34v.6a18.7 18.7 0 0 0 16.8-16.7 18.7 18.7 0 1 0-16.7 16.7v-.6zm47.2-91A12.3 12.3 0 1 0 111 61a12.3 12.3 0 0 0 10.5-22.2zm-7.5-1.7a13 13 0 1 1 4.4 25.6 13 13 0 0 1-4.4-25.6zM149 92a8.5 8.5 0 1 0-7.4 15.3A8.5 8.5 0 0 0 149 92zm-5.2-1.3a9 9 0 1 1 3 17.9 9 9 0 0 1-3-17.9z" fill="#fff"/></g><defs><clipPath id="a"><path fill="#fff" d="M0 0h186v186H0z"/></clipPath></defs></svg>