<svg width="186" height="186" fill="none" xmlns="http://www.w3.org/2000/svg"><g clip-path="url(#a)"><path d="M171.8 27.4H74.5v68h97.2v-68z" fill="#40A0FF"/><path d="M115.4 124.5H16.3V66h99v58.6z" fill="#FFC863"/><path d="M32.6 142.2s.3-17.7 0-17.7h17.8l-17.8 17.7z" fill="#FFC863"/><path d="M161.2 112.6s-.2-17.6 0-17.6h-17.8l17.8 17.6z" fill="#40A0FF"/><path d="M115.4 65.9H74.6v29.4h40.8V66z" fill="#31D3B4"/><path fill-rule="evenodd" clip-rule="evenodd" d="M106.2 52.2a3 3 0 1 0 0 6 3 3 0 0 0 0-6zm-4 3a4 4 0 1 1 8 0 4 4 0 0 1-8 0zm20.9-3a3 3 0 1 0 0 6 3 3 0 0 0 0-6zm-4 3a4 4 0 1 1 8 0 4 4 0 0 1-8 0zm20.9-3a3 3 0 1 0 0 6 3 3 0 0 0 0-6zm-4 3a4 4 0 1 1 8 0 4 4 0 0 1-8 0z" fill="#fff"/><path d="M33.8 108l-.6-1c4.7-2.5 9-5.7 12.8-9.4a13.3 13.3 0 0 1 .8-11c1-1.6 2-2.7 3.3-3.2 1.7-.7 3.6-.2 4.5 1.2 1 1.5.6 3.5-1 6-2 2.6-4 5-6.3 7.2.4.8 1 1.5 1.7 2 1.4 1 3.3 1.5 6.1 1.3 4.5-.4 8.8-1.8 12.6-4.1-.3-1.2-.3-2.4-.1-3.6.4-3.1 2.1-5.9 3.5-7.9 1.6-2.2 4-4 6-2.7a2.9 2.9 0 0 1 1.4 2c.3 1.6-.5 3.6-1.4 4.8-2.2 3.2-5 5.8-8.1 7.9.3 1.2 1 2.3 2 3.2 1.4 1.2 3.4 1.8 6.2 1.9 5.7.2 11.3-1.5 16.6-3.2l.4 1a51.8 51.8 0 0 1-17 3.3c-3 0-5.3-.8-7-2.1-1-1-1.8-2.2-2.2-3.5a29.5 29.5 0 0 1-12.8 4.1c-3.1.3-5.3-.2-7-1.5a6.9 6.9 0 0 1-1.7-2c-3.8 3.6-8 6.8-12.7 9.3zm17.9-23.7c-.4 0-.8 0-1.2.2-1 .4-2 1.3-2.7 2.7a12.3 12.3 0 0 0-1 9.5c2.1-2.1 4-4.4 5.8-6.8 1-1.4 2-3.4 1-4.7-.4-.6-1.2-1-2-1zm24-.8c-1.4 0-3 1.6-3.7 2.7a18 18 0 0 0-3.3 7.3v2.8c3-2 5.5-4.4 7.5-7.3.7-1.1 1.4-2.8 1.2-4a1.7 1.7 0 0 0-1.7-1.5z" fill="#40A0FF"/><path d="M78.5 84.7a2.9 2.9 0 0 0-4-2.1v1.2l1.2-.3a1.7 1.7 0 0 1 1.7 1.5c.2 1.2-.5 2.9-1.2 4l-1.6 2v1.8c.9-1 1.7-2 2.5-3.2.9-1.2 1.7-3.2 1.4-4.9z" fill="#225784"/></g><defs><clipPath id="a"><path fill="#fff" d="M0 0h186v186H0z"/></clipPath></defs></svg>