<svg width="186" height="186" fill="none" xmlns="http://www.w3.org/2000/svg"><g clip-path="url(#a)"><path d="M128.4 158H65.6L48.3 60.6h95.8l-15.7 97.2z" fill="#40A0FF"/><path d="M151.1 42.8H41.3v17.9h109.8V42.8z" fill="#40A0FF"/><path d="M85 70h-1.1l3.7 79.4h1L85 69.8zm-20-.1l-1.1.1 10.7 79.4 1-.1L65 69.9zm41.2.1l-3.6 79.3h1l3.7-79.3h-1zm21-.1l-10.7 79.4 1.1.1L128.3 70l-1-.1zm-78.9-9.2H144l-.5 2.9H49l-.6-3z" fill="#225784"/><path d="M115.6 32.3H76.9L74.7 43h4.1l1.3-6.8h32l1.4 6.8h4.2l-2.1-10.6z" fill="#31D3B4"/><path d="M46.7 119.6l2.1 5 6-6.5 11 4.5.1 8 6.8 1V142s6.4 2.3 6.2 2.7l-5 8.6-5.4.7-2 4H46.7l.6-5.4-7.3 4.5-4.6-1.6-2.8-11.7-.2-6.1 6.2-1.2-6.2-3 5.5-9.8 8.8-4z" fill="#FFC863"/><path d="M58 153.2a.5.5 0 0 1-.4-.4l-3.8-8.2-9.8 5-.2.1a.5.5 0 0 1-.6-.4l-2.5-7.8a.5.5 0 0 1 .1-.6l.2-.1 6-1.8-1.4-5.4a.6.6 0 0 1 .3-.6l9.2-5.3.6 1-9 5 1.6 5.5a.5.5 0 0 1-.4.7l-6 1.8 2.2 6.7 9.7-5a.6.6 0 0 1 .4 0 .5.5 0 0 1 .4.3l3.5 7.8 8.2-11.5-7-2-6.8 2.3a.5.5 0 0 1-.5 0 .5.5 0 0 1-.2-.5l.9-6.4a.5.5 0 0 1 .5-.4l7.7-.5v1l-7.2.5-.7 5 6.2-2.1h.3l7.9 2.3a.5.5 0 0 1 .4.6l-.1.2-9.2 13a.5.5 0 0 1-.4.2z" fill="#fff"/></g><defs><clipPath id="a"><path fill="#fff" d="M0 0h186v186H0z"/></clipPath></defs></svg>