<svg width="186" height="186" fill="none" xmlns="http://www.w3.org/2000/svg"><g clip-path="url(#a)"><path d="M124.01 133.87H58.98V90.4h64.37V51.63H59.39V50.3h65.28v41.42H60.31v40.82H124v1.33z" fill="#225784"/><path d="M78.2 30.29H36.43v41.78H78.2V30.3z" fill="#FFC863"/><path d="M148.65 50.97a23.17 23.17 0 1 1-46.34 0 23.17 23.17 0 0 1 46.34 0z" fill="#40A0FF"/><path d="M74.1 113.14H48.98L36.42 134.9l12.56 21.76H74.1l12.57-21.76-12.57-21.76z" fill="#FF7374"/><path d="m122.98 112.12 13.3 23.04 13.3 23.04h-53.2l13.3-23.04 13.3-23.04z" fill="#31D3B4"/></g><defs><clipPath id="a"><path fill="#fff" d="M0 0h186v186H0z"/></clipPath></defs></svg>